# xmcd
#
# Track frame offsets:
#	150
#	16849
#	34754
#	48377
#	67552
#	88447
#	103817
#	122265
#	136489
#	155061
#	169312
#	189236
#	203240
#
# Disc length: 2880 seconds
#
# Revision: 1
# Processed by: cddbd v1.5.2PL0 Copyright (c) Steve Scherf et al.
# Submitted via: audiograbber 1.83.01
#
DISCID=ab0b3e0d
DTITLE=Reg Poole  - Reg Poole Life
DYEAR=2013
DGENRE=Country Music
TTITLE0=Grandpa's Little Girl
TTITLE1=Old Soldiers Home
TTITLE2=Super 8
TTITLE3=Your Wedding Day
TTITLE4=Ancient Mountains
TTITLE5=If Everyone
TTITLE6=With Love from Normandy
TTITLE7=One One Was A Racehorse
TTITLE8=Rodeo Heaven
TTITLE9=Hello Silver Moon and Twinkling Stars
TTITLE10=So Long Old Mate (Tribute Ray Rose)
TTITLE11=When You've Cried All You Can Cry
TTITLE12=Aussie Mates
EXTD=
EXTT0=
EXTT1=
EXTT2=
EXTT3=
EXTT4=
EXTT5=
EXTT6=
EXTT7=
EXTT8=
EXTT9=
EXTT10=
EXTT11=
EXTT12=
PLAYORDER=
